# xmcd
#
# Track frame offsets:
#	150
#	17718
#	35307
#	53142
#	69595
#	85105
#	101703
#	119398
#	137799
#	152771
#	172861
#
# Disc length: 2604 seconds
#
# Revision: 1
# Processed by: cddbd v1.5.2PL0 Copyright (c) Steve Scherf et al.
# Submitted via: EZCDAudioConverter 7.1.5.1
#
DISCID=880a2a0b
DTITLE=张震岳 - 我是海雅谷慕
DYEAR=2013
DGENRE=
TTITLE0=跑车与坦克
TTITLE1=破吉他
TTITLE2=走慢一点点
TTITLE3=先这样吧
TTITLE4=消失在你的世界里
TTITLE5=唉唷喂呀
TTITLE6=上班下班
TTITLE7=我家门前有大海
TTITLE8=别哭小女孩
TTITLE9=抱着你
TTITLE10=无名的情歌
EXTD=
EXTT0=
EXTT1=
EXTT2=
EXTT3=
EXTT4=
EXTT5=
EXTT6=
EXTT7=
EXTT8=
EXTT9=
EXTT10=
PLAYORDER=
